<svg width="131" height="31" viewBox="0 0 131 31" fill="none" xmlns="http://www.w3.org/2000/svg">
<rect x="0.499939" y="0.5" width="29.5049" height="29.5049" rx="7.5" fill="url(#paint0_linear_1_346)" stroke="white"/>
<g clip-path="url(#clip0_1_346)">
<path d="M4.88737 9.0198C5.57765 7.47883 7.38724 7.01537 7.46616 6.99643C9.01543 6.62314 10.8205 7.29489 11.6051 8.54732C12.4568 9.90796 11.9135 11.6527 11.3448 13.4759C10.9366 14.786 10.3388 15.9095 10.4776 15.9853C10.5801 16.0412 10.9883 15.4803 11.1579 15.2477C12.1539 13.8862 13.2886 12.6265 14.271 11.2542C14.9803 10.2623 16.0316 8.88906 17.4902 7.28768C17.5917 7.16775 18.7419 5.83146 19.3787 6.12361C19.4794 6.16959 19.7651 6.34722 19.7868 7.84131C19.8041 9.02702 18.7319 13.9295 18.7319 13.9295C18.5052 14.7806 18.1777 16.0448 17.8067 17.6083C17.7323 17.9518 17.6788 18.3206 17.7904 18.3702C17.8738 18.4072 18.0181 18.2521 18.0915 18.1728C19.239 16.914 20.1733 15.2964 20.1733 15.2964C21.2953 13.594 22.167 12.0909 22.8165 10.9016C23.3017 10.0117 24.1752 8.41207 24.783 6.99193C25.0832 6.29132 25.417 5.60604 25.7281 4.90995C25.993 4.31574 26.0837 4.08942 26.1263 4.10114C26.2434 4.1345 25.8533 5.94868 25.4215 7.49867C25.2311 8.18124 24.7331 9.88722 23.8124 12.0431C23.319 13.1991 22.7067 14.4759 21.9484 15.8257C21.7869 16.1133 20.9724 17.5515 19.7007 19.3035C19.083 20.1547 18.6204 20.7173 17.9382 21.2836C17.3124 21.8038 16.3219 22.6045 15.3449 22.3358C15.2071 22.2979 15.0855 22.2664 14.9667 22.1726C14.6402 21.9147 14.2692 21.1258 16.3636 14.8392C16.3636 14.8392 16.6021 14.1233 17.13 11.6707C17.3795 10.5139 17.4022 9.91607 17.2598 9.86287C17.1174 9.80968 16.8616 10.2082 16.1849 11.1757C15.7568 11.788 15.3096 12.3885 14.8814 13.0007C13.812 14.5291 12.8478 15.731 11.1752 17.8166C11.1552 17.8418 11.1316 17.8707 11.099 17.9095C11.0228 18.0014 10.3978 18.7453 9.55695 19.2755C8.93289 19.6686 7.53782 20.3548 7.22488 19.9942C7.04347 19.785 7.3564 19.3729 8.08478 17.6327C8.40769 16.9266 8.58457 16.3766 8.60453 16.3279C9.88168 13.227 10.5729 10.6257 9.56693 9.56081C9.19503 9.16678 8.58004 8.98825 8.07661 9.07751C7.32828 9.20916 6.92464 9.91427 6.88654 9.9819C6.11644 11.3732 7.95235 13.75 8.42856 14.4281C13.5553 21.7317 25.0868 25.0995 25.0442 25.2113C25.0243 25.2636 22.5371 24.5458 17.0666 22.197C13.4501 20.6443 11.6169 19.849 10.396 18.9356C7.07703 16.4496 3.60478 11.8808 4.88737 9.0198Z" fill="white"/>
<path d="M19.1419 21.8546L19.1065 22.8086C19.1065 22.8239 19.1029 22.8383 19.0966 22.8509L18.7228 23.6778L18.7691 23.7274L19.4821 23.2729C19.5129 23.2531 19.5528 23.2531 19.5873 23.2729C19.5954 23.2774 20.4426 23.7499 21.5311 24.199C21.5647 24.2125 21.5919 24.2413 21.6046 24.2774C21.6173 24.3135 21.6137 24.3513 21.5955 24.3802L20.3048 26.4459C20.2803 26.5352 20.293 26.5632 20.2948 26.5659C20.3111 26.5965 20.4245 26.6299 20.4853 26.6479C20.6395 26.6939 20.7583 26.5722 20.7592 26.5713C20.7619 26.5686 20.7656 26.565 20.7683 26.5632L21.2372 26.1826C21.2708 26.1556 21.318 26.1547 21.357 26.1799C21.4123 26.2151 21.4731 26.2449 21.5384 26.2701C21.6236 26.3017 21.7089 26.3215 21.7806 26.3251C21.7833 26.3035 21.7869 26.2818 21.7914 26.2611C21.796 26.2395 21.8023 26.2187 21.8096 26.1989C21.7606 26.1619 21.6998 26.1276 21.6345 26.0988C21.5964 26.0826 21.5674 26.0456 21.5583 26.0023C21.5502 25.9599 21.5629 25.9185 21.5928 25.8941L22.05 25.5226C22.0853 25.4947 22.1352 25.4947 22.176 25.5235C22.2377 25.5677 22.3121 25.6065 22.3919 25.6371C22.4772 25.6696 22.5625 25.6885 22.6341 25.6921C22.6368 25.6705 22.6405 25.6489 22.645 25.6281C22.6495 25.6074 22.6559 25.5866 22.6631 25.5659C22.6033 25.5208 22.5253 25.4793 22.4436 25.4478C22.4037 25.4325 22.3729 25.3964 22.3629 25.3522C22.3529 25.3089 22.3665 25.2656 22.3974 25.2413L22.9715 24.7751C22.9969 24.7544 23.0314 24.749 23.065 24.7598C24.0183 25.0745 24.8201 25.29 24.8274 25.2918C25.3217 25.4379 25.4379 25.2548 25.456 25.2151C25.456 25.198 25.4533 25.1466 25.4161 25.0781C25.3662 24.9861 25.2474 24.8491 24.9616 24.7183C24.9517 24.7129 24.1852 24.3405 23.2509 23.9456C23.2183 23.9321 23.192 23.9032 23.1793 23.868L22.8935 23.0791C22.8781 23.0367 22.8854 22.9916 22.9117 22.9618C22.938 22.9321 22.9797 22.9222 23.0196 22.9375C23.1022 22.9682 23.1856 22.9862 23.2545 22.9898C23.2573 22.9673 23.2609 22.9465 23.2663 22.9249C23.2709 22.9041 23.2772 22.8834 23.2845 22.8636C23.2228 22.8176 23.143 22.7743 23.0577 22.7427C22.977 22.713 22.8981 22.694 22.8282 22.6886C22.782 22.685 22.7384 22.6508 22.7221 22.603L22.4944 21.9745C22.4799 21.933 22.4863 21.8888 22.5108 21.8591C22.5361 21.8293 22.5761 21.8185 22.6151 21.8311C22.6831 21.8528 22.7484 21.8654 22.8046 21.8681C22.8074 21.8465 22.811 21.8248 22.8155 21.8032C22.8201 21.7825 22.8264 21.7617 22.8337 21.741C22.772 21.695 22.6922 21.6517 22.6069 21.6201C22.5425 21.5958 22.4763 21.5787 22.4164 21.5706C22.372 21.5642 22.333 21.5309 22.3166 21.4858L22.0835 20.842C22.0817 20.8375 22.0808 20.833 22.079 20.8276C22.079 20.8276 22.0681 20.7852 22.04 20.7338C21.9992 20.6581 21.9456 20.604 21.8812 20.5742C21.8223 20.5471 21.7134 20.4976 21.6862 20.5111C21.6835 20.512 21.6608 20.5264 21.6436 20.6193L21.854 23.2486C21.8568 23.2856 21.8431 23.3198 21.8178 23.3415C21.7924 23.3631 21.757 23.3685 21.7225 23.3568C20.6168 22.9817 19.7052 22.7932 19.6961 22.7914C19.6589 22.7842 19.6254 22.7563 19.6072 22.7184L19.2 21.8438L19.1401 21.8537L19.1419 21.8546Z" fill="white"/>
</g>
<path d="M125.813 23.5536C124.666 23.5536 123.646 23.312 122.755 22.8288C121.865 22.3305 121.155 21.651 120.626 20.7903C120.113 19.9296 119.856 18.9481 119.856 17.8458C119.856 16.7586 120.105 15.7922 120.604 14.9467C121.117 14.086 121.812 13.4065 122.688 12.9082C123.563 12.3948 124.537 12.1381 125.609 12.1381C126.666 12.1381 127.595 12.3797 128.395 12.8629C129.211 13.331 129.845 13.9803 130.298 14.8108C130.766 15.6261 131 16.5548 131 17.5967C131 17.793 130.985 17.9968 130.955 18.2082C130.94 18.4045 130.902 18.631 130.841 18.8877L121.646 18.9104V16.6907L129.46 16.668L128.259 17.5967C128.229 16.9474 128.108 16.4038 127.897 15.9659C127.701 15.528 127.406 15.1958 127.014 14.9693C126.636 14.7277 126.168 14.6069 125.609 14.6069C125.02 14.6069 124.507 14.7428 124.069 15.0146C123.631 15.2713 123.292 15.6412 123.05 16.1244C122.823 16.5925 122.71 17.1512 122.71 17.8005C122.71 18.4649 122.831 19.0463 123.073 19.5446C123.329 20.0278 123.692 20.4053 124.16 20.6771C124.628 20.9338 125.171 21.0621 125.791 21.0621C126.349 21.0621 126.855 20.9715 127.308 20.7903C127.761 20.594 128.154 20.3071 128.486 19.9296L130.23 21.6737C129.701 22.2928 129.052 22.7609 128.282 23.078C127.527 23.3951 126.704 23.5536 125.813 23.5536Z" fill="white"/>
<path d="M100.939 23.327V12.3871H103.906V23.327H100.939ZM108.074 23.327V16.8718C108.074 16.2376 107.87 15.7469 107.462 15.3996C107.069 15.0372 106.579 14.856 105.99 14.856C105.597 14.856 105.242 14.939 104.925 15.1051C104.608 15.2561 104.359 15.4826 104.178 15.7846C103.997 16.0866 103.906 16.449 103.906 16.8718L102.751 16.3056C102.751 15.46 102.932 14.7276 103.294 14.1085C103.672 13.4894 104.178 13.0138 104.812 12.6816C105.446 12.3343 106.163 12.1606 106.964 12.1606C107.719 12.1606 108.406 12.3343 109.025 12.6816C109.644 13.0138 110.135 13.4894 110.497 14.1085C110.859 14.7125 111.041 15.4449 111.041 16.3056V23.327H108.074ZM115.208 23.327V16.8718C115.208 16.2376 115.004 15.7469 114.597 15.3996C114.204 15.0372 113.713 14.856 113.124 14.856C112.747 14.856 112.392 14.939 112.06 15.1051C111.743 15.2561 111.494 15.4826 111.312 15.7846C111.131 16.0866 111.041 16.449 111.041 16.8718L109.342 16.4641C109.402 15.5883 109.636 14.8333 110.044 14.1991C110.452 13.5498 110.988 13.0515 111.652 12.7042C112.317 12.3418 113.056 12.1606 113.872 12.1606C114.687 12.1606 115.42 12.3343 116.069 12.6816C116.718 13.0138 117.232 13.497 117.609 14.1312C117.987 14.7654 118.175 15.5204 118.175 16.3962V23.327H115.208Z" fill="white"/>
<path d="M93.1851 23.5536C92.0828 23.5536 91.0862 23.3045 90.1953 22.8062C89.3195 22.2928 88.6174 21.6057 88.0889 20.745C87.5755 19.8692 87.3188 18.8953 87.3188 17.8232C87.3188 16.7511 87.5755 15.7922 88.0889 14.9467C88.6023 14.086 89.3044 13.4065 90.1953 12.9082C91.0862 12.3948 92.0753 12.1381 93.1625 12.1381C94.2799 12.1381 95.2765 12.3948 96.1523 12.9082C97.0431 13.4065 97.7453 14.086 98.2587 14.9467C98.7721 15.7922 99.0288 16.7511 99.0288 17.8232C99.0288 18.8953 98.7721 19.8692 98.2587 20.745C97.7453 21.6057 97.0431 22.2928 96.1523 22.8062C95.2765 23.3045 94.2874 23.5536 93.1851 23.5536ZM93.1625 20.7903C93.7212 20.7903 94.2119 20.6695 94.6347 20.4279C95.0726 20.1712 95.4048 19.8239 95.6313 19.386C95.8729 18.933 95.9937 18.4196 95.9937 17.8458C95.9937 17.272 95.8729 16.7662 95.6313 16.3283C95.3897 15.8904 95.0575 15.5506 94.6347 15.309C94.2119 15.0523 93.7212 14.924 93.1625 14.924C92.6189 14.924 92.1357 15.0523 91.7129 15.309C91.2901 15.5506 90.9579 15.8904 90.7163 16.3283C90.4747 16.7662 90.3539 17.272 90.3539 17.8458C90.3539 18.4196 90.4747 18.933 90.7163 19.386C90.9579 19.8239 91.2901 20.1712 91.7129 20.4279C92.1357 20.6695 92.6189 20.7903 93.1625 20.7903Z" fill="white"/>
<path d="M82.304 23.5536C81.1866 23.5536 80.1824 23.3045 79.2915 22.8062C78.4006 22.3079 77.6985 21.6284 77.1851 20.7677C76.6717 19.907 76.415 18.9406 76.415 17.8685C76.415 16.7813 76.6717 15.8073 77.1851 14.9467C77.6985 14.086 78.4006 13.4065 79.2915 12.9082C80.1975 12.3948 81.2017 12.1381 82.304 12.1381C83.1646 12.1381 83.9574 12.2966 84.6822 12.6137C85.407 12.9308 86.0336 13.3838 86.5621 13.9727L84.6595 15.8979C84.3726 15.5808 84.0253 15.3392 83.6176 15.1731C83.225 15.0071 82.7871 14.924 82.304 14.924C81.7604 14.924 81.2696 15.0523 80.8317 15.309C80.4089 15.5506 80.0692 15.8904 79.8125 16.3283C79.5709 16.7511 79.4501 17.2569 79.4501 17.8458C79.4501 18.4196 79.5709 18.933 79.8125 19.386C80.0692 19.8239 80.4089 20.1712 80.8317 20.4279C81.2696 20.6695 81.7604 20.7903 82.304 20.7903C82.8022 20.7903 83.2477 20.7073 83.6403 20.5412C84.048 20.36 84.3953 20.1033 84.6822 19.7711L86.6074 21.6963C86.0487 22.3003 85.407 22.7609 84.6822 23.078C83.9574 23.3951 83.1646 23.5536 82.304 23.5536Z" fill="white"/>
<path d="M71.5433 23.3272V6.95129H74.5104V23.3272H71.5433Z" fill="white"/>
<path d="M64.5211 23.5536C63.3735 23.5536 62.3542 23.312 61.4633 22.8288C60.5724 22.3305 59.8627 21.651 59.3342 20.7903C58.8208 19.9296 58.5641 18.9481 58.5641 17.8458C58.5641 16.7586 58.8133 15.7922 59.3116 14.9467C59.825 14.086 60.5196 13.4065 61.3954 12.9082C62.2712 12.3948 63.2451 12.1381 64.3172 12.1381C65.3742 12.1381 66.3029 12.3797 67.1032 12.8629C67.9186 13.331 68.5528 13.9803 69.0058 14.8108C69.4739 15.6261 69.7079 16.5548 69.7079 17.5967C69.7079 17.793 69.6928 17.9968 69.6626 18.2082C69.6475 18.4045 69.6098 18.631 69.5494 18.8877L60.3535 18.9104V16.6907L68.1677 16.668L66.9673 17.5967C66.9371 16.9474 66.8163 16.4038 66.6049 15.9659C66.4086 15.528 66.1141 15.1958 65.7215 14.9693C65.344 14.7277 64.8759 14.6069 64.3172 14.6069C63.7283 14.6069 63.2149 14.7428 62.777 15.0146C62.3391 15.2713 61.9994 15.6412 61.7578 16.1244C61.5313 16.5925 61.418 17.1512 61.418 17.8005C61.418 18.4649 61.5388 19.0463 61.7804 19.5446C62.0371 20.0278 62.3995 20.4053 62.8676 20.6771C63.3357 20.9338 63.8793 21.0621 64.4984 21.0621C65.0571 21.0621 65.563 20.9715 66.016 20.7903C66.469 20.594 66.8616 20.3071 67.1938 19.9296L68.9378 21.6737C68.4093 22.2928 67.76 22.7609 66.9899 23.078C66.2349 23.3951 65.412 23.5536 64.5211 23.5536Z" fill="white"/>
<path d="M42.669 23.3271L37.5048 7.40417H40.5399L44.3677 19.6578H43.3485L47.1084 7.40417H49.396L53.1559 19.6578H52.114L55.9645 7.40417H58.9996L53.8128 23.3271H51.5251L47.7426 11.0961H48.7392L44.9793 23.3271H42.669Z" fill="white"/>
<defs>
<linearGradient id="paint0_linear_1_346" x1="-6.07214e-05" y1="3.97332" x2="24.6089" y2="26.5316" gradientUnits="userSpaceOnUse">
<stop stop-color="#15D4F1"/>
<stop offset="1" stop-color="#0BB6F1"/>
</linearGradient>
<clipPath id="clip0_1_346">
<rect width="21.5329" height="22.5582" fill="white" transform="translate(4.61432 4.10144)"/>
</clipPath>
</defs>
</svg>
